STARTFONT 2.1
FONT -DEC-Terminal-Bold-R-Double Wide--25-180-100-100-C-220-ISO8859-8
SIZE 18 100 100
FONTBOUNDINGBOX 25 27 0 -5

STARTPROPERTIES 25
CHARSET_REGISTRY "ISO8859"
CHARSET_ENCODING "8"
CAP_HEIGHT 15
X_HEIGHT 12
AVERAGE_WIDTH 220
FONTNAME_REGISTRY ""
FAMILY_NAME "Terminal"
FOUNDRY "DEC"
WEIGHT_NAME "Bold"
SETWIDTH_NAME "Double Wide"
SLANT "R"
ADD_STYLE_NAME ""
PIXEL_SIZE 25
RESOLUTION_X 100
RESOLUTION_Y 100
SPACING "C"
CHARSET_COLLECTIONS "ASCII ISO8859-8"
FULL_NAME "Terminal Bold Double Wide"
COPYRIGHT "Copyright (c) 1988 Bitstream, Inc., Copyright 1991 Digital Equipment Corp."
QUAD_WIDTH 25
POINT_SIZE 180
WEIGHT 10
DEFAULT_CHAR 159
FONT_DESCENT 5
FONT_ASCENT 20
ENDPROPERTIES

CHARS 194

STARTCHAR space
ENCODING 32
SWIDTH 1000 0
DWIDTH 25 0
BBX 11 15 7 0
BITMAP
0000
0000
0000
0000
0000
0000
0000
0000
0000
0000
0000
0000
0000
0000
0000
ENDCHAR

STARTCHAR exclam
ENCODING 33
SWIDTH 1000 0
DWIDTH 25 0
BBX 11 15 7 0
BITMAP
3F80
3F80
3F80
3F80
3F80
3F80
3F80
3F80
3F80
0000
0000
3F80
FFE0
FFE0
3F80
ENDCHAR

STARTCHAR quotedbl
ENCODING 34
SWIDTH 1000 0
DWIDTH 25 0
BBX 13 8 6 10
BITMAP
F078
F078
F078
F078
F078
F078
F078
F078
ENDCHAR

STARTCHAR numbersign
ENCODING 35
SWIDTH 1000 0
DWIDTH 25 0
BBX 23 19 1 -4
BITMAP
1FC7F0
1FC7F0
1FC7F0
1FC7F0
1FC7F0
FFFFFE
FFFFFE
FFFFFE
1FC7F0
1FC7F0
1FC7F0
FFFFFE
FFFFFE
FFFFFE
1FC7F0
1FC7F0
1FC7F0
1FC7F0
1FC7F0
ENDCHAR

STARTCHAR dollar
ENCODING 36
SWIDTH 1000 0
DWIDTH 25 0
BBX 21 22 2 -4
BITMAP
003C00
003C00
003C00
1FFC78
7FFFF8
7FFFF8
FE03F8
FE00F8
7FE000
7FFC00
0FFFC0
00FFF0
F803F8
F803F8
FE03F8
FFFFF8
FFFFF0
F9FFC0
01F000
01F000
01F000
01F000
ENDCHAR

STARTCHAR percent
ENCODING 37
SWIDTH 1000 0
DWIDTH 25 0
BBX 23 17 1 -1
BITMAP
7FF000
FFF800
F07800
F07800
F07818
FFF878
7FF1E0
000F00
007C00
01E000
0F0FFC
3C3FFE
303C1E
003C1E
003C1E
003FFE
001FFC
ENDCHAR

STARTCHAR ampersand
ENCODING 38
SWIDTH 1000 0
DWIDTH 25 0
BBX 21 15 2 0
BITMAP
03F9E0
0FFFE0
1FFFE0
1F83E0
1FC000
0FE0F8
07F0F8
1FF8F8
7CFDE0
FC3FE0
FC1FC0
FE0FE0
7FFFF8
7FFFF8
1FFCF8
ENDCHAR

STARTCHAR quoteright
ENCODING 39
SWIDTH 1000 0
DWIDTH 25 0
BBX 13 7 5 11
BITMAP
03F8
07F0
0FE0
1F80
3F00
7C00
F800
ENDCHAR

STARTCHAR parenleft
ENCODING 40
SWIDTH 1000 0
DWIDTH 25 0
BBX 13 22 6 -5
BITMAP
0078
01F8
07E0
0F80
1F80
3F00
7F00
7E00
FE00
FE00
FE00
FE00
FE00
FE00
FE00
7F00
7F00
3F80
1F80
0FE0
03F8
0078
ENDCHAR

STARTCHAR parenright
ENCODING 41
SWIDTH 1000 0
DWIDTH 25 0
BBX 13 22 6 -5
BITMAP
F000
FE00
3F80
0FC0
0FE0
07F0
07F0
03F8
03F8
03F8
03F8
03F8
03F8
03F8
03F0
07F0
07E0
0FC0
0F80
3F00
FC00
F000
ENDCHAR

STARTCHAR asterisk
ENCODING 42
SWIDTH 1000 0
DWIDTH 25 0
BBX 21 14 2 0
BITMAP
00F800
30F860
78F8F0
FCF9F8
7FFFF0
3FFFE0
1FFFC0
0FFF80
0FFF80
1FDFC0
3F8FE0
1F07C0
0E0380
040100
ENDCHAR

STARTCHAR plus
ENCODING 43
SWIDTH 1000 0
DWIDTH 25 0
BBX 21 13 2 0
BITMAP
01FC00
01FC00
01FC00
01FC00
01FC00
FFFFF8
FFFFF8
FFFFF8
01FC00
01FC00
01FC00
01FC00
01FC00
ENDCHAR

STARTCHAR comma
ENCODING 44
SWIDTH 1000 0
DWIDTH 25 0
BBX 12 8 6 -4
BITMAP
1FF0
1FF0
1FE0
3FC0
3F80
7F00
7E00
FC00
ENDCHAR

STARTCHAR minus
ENCODING 45
SWIDTH 1000 0
DWIDTH 25 0
BBX 21 3 2 5
BITMAP
FFFFF8
FFFFF8
FFFFF8
ENDCHAR

STARTCHAR period
ENCODING 46
SWIDTH 1000 0
DWIDTH 25 0
BBX 9 5 8 0
BITMAP
3E00
FF80
FF80
FF80
3E00
ENDCHAR

STARTCHAR slash
ENCODING 47
SWIDTH 1000 0
DWIDTH 25 0
BBX 24 20 1 -3
BITMAP
00001F
00003E
00007C
0000F8
0001F0
0003E0
0007C0
000F80
001F00
003E00
007C00
00F800
01F000
03E000
07C000
0F8000
1F0000
3E0000
7C0000
F80000
ENDCHAR

STARTCHAR zero
ENCODING 48
SWIDTH 1000 0
DWIDTH 25 0
BBX 21 15 2 0
BITMAP
07FF00
1FFFC0
7FFFF0
7F07F0
FE03F8
FE03F8
FE03F8
FE03F8
FE03F8
FE03F8
FE03F8
7F07F0
3FFFE0
1FFFC0
03FE00
ENDCHAR

STARTCHAR one
ENCODING 49
SWIDTH 1000 0
DWIDTH 25 0
BBX 20 15 3 0
BITMAP
03FC00
1FFC00
FFFC00
FFFC00
E1FC00
01FC00
01FC00
01FC00
01FC00
01FC00
01FC00
01FC00
7FFFF0
7FFFF0
7FFFF0
ENDCHAR

STARTCHAR two
ENCODING 50
SWIDTH 1000 0
DWIDTH 25 0
BBX 21 15 2 0
BITMAP
0FFFC0
FFFFF0
FFFFF0
F803F8
F803F8
0007F0
000FF0
003FC0
00FF00
03FC00
0FF0F8
3F80F8
FFFFF8
FFFFF8
FFFFF8
ENDCHAR

STARTCHAR three
ENCODING 51
SWIDTH 1000 0
DWIDTH 25 0
BBX 21 15 2 0
BITMAP
1FFFC0
FFFFF0
FFFFF8
F803F8
F803F0
0003F0
01FFC0
01FFF0
01FFF8
0003F8
F803F8
F803F8
FFFFF8
FFFFF0
1FFFC0
ENDCHAR

STARTCHAR four
ENCODING 52
SWIDTH 1000 0
DWIDTH 25 0
BBX 22 15 1 0
BITMAP
00FFE0
01FFE0
03FFE0
07CFE0
0F8FE0
1F0FE0
3E0FE0
7C0FE0
FFFFFC
FFFFFC
FFFFFC
000FE0
01FFFC
01FFFC
01FFFC
ENDCHAR

STARTCHAR five
ENCODING 53
SWIDTH 1000 0
DWIDTH 25 0
BBX 21 15 2 0
BITMAP
FFFFF8
FFFFF8
FFFFF8
FC0000
FC0000
FFFFC0
FFFFF0
FFFFF8
E003F8
0003F8
0003F8
F803F8
FFFFF8
FFFFF0
1FFFC0
ENDCHAR

STARTCHAR six
ENCODING 54
SWIDTH 1000 0
DWIDTH 25 0
BBX 21 15 2 0
BITMAP
03FFF0
1FFFF0
3FFFF0
7F0000
7E0000
FE3FC0
FEFFF0
FFFFF8
FF03F8
FE01F8
FE01F8
7F03F8
7FFFF8
3FFFF0
07FFC0
ENDCHAR

STARTCHAR seven
ENCODING 55
SWIDTH 1000 0
DWIDTH 25 0
BBX 21 15 2 0
BITMAP
FFFFF8
FFFFF8
FFFFF8
FC03F8
FC07F8
000FF0
001FE0
003FC0
007F80
00FF00
01FE00
03FC00
07F800
0FF000
0FF000
ENDCHAR

STARTCHAR eight
ENCODING 56
SWIDTH 1000 0
DWIDTH 25 0
BBX 21 15 2 0
BITMAP
1FFFC0
3FFFE0
7FFFF0
7E03F0
7E03F0
3E03E0
1FFFC0
7FFFF0
FE03F8
FE03F8
FE03F8
FE03F8
7FFFF0
7FFFF0
1FFFC0
ENDCHAR

STARTCHAR nine
ENCODING 57
SWIDTH 1000 0
DWIDTH 25 0
BBX 21 15 2 0
BITMAP
1FFFC0
7FFFF0
FFFFF0
FE07F8
FC03F8
FC03F8
FE07F8
7FFFF8
3FFFF8
0FF3F8
0003F0
0007F0
7FFFE0
7FFFC0
7FFE00
ENDCHAR

STARTCHAR colon
ENCODING 58
SWIDTH 1000 0
DWIDTH 25 0
BBX 9 12 8 0
BITMAP
3E00
FF80
FF80
FF80
3E00
0000
0000
3E00
FF80
FF80
FF80
3E00
ENDCHAR

STARTCHAR semicolon
ENCODING 59
SWIDTH 1000 0
DWIDTH 25 0
BBX 13 16 6 -4
BITMAP
07E0
1FF8
1FF8
1FF8
07E0
0000
0000
0000
1FF0
1FF0
1FE0
3FC0
3F80
7F00
7E00
FC00
ENDCHAR

STARTCHAR less
ENCODING 60
SWIDTH 1000 0
DWIDTH 25 0
BBX 21 13 2 1
BITMAP
0000F8
0003F8
001FF8
01FFC0
1FFE00
FFF000
FF8000
FFF000
1FFE00
01FFC0
001FF8
0003F8
0000F8
ENDCHAR

STARTCHAR equal
ENCODING 61
SWIDTH 1000 0
DWIDTH 25 0
BBX 21 8 2 3
BITMAP
FFFFF8
FFFFF8
FFFFF8
000000
000000
FFFFF8
FFFFF8
FFFFF8
ENDCHAR

STARTCHAR greater
ENCODING 62
SWIDTH 1000 0
DWIDTH 25 0
BBX 21 13 2 1
BITMAP
F80000
FE0000
FFC000
1FFC00
03FFC0
007FF8
000FF8
007FF8
03FFC0
1FFC00
FFC000
FE0000
F80000
ENDCHAR

STARTCHAR question
ENCODING 63
SWIDTH 1000 0
DWIDTH 25 0
BBX 19 15 3 0
BITMAP
1FFF00
7FFFC0
FF1FE0
FE0FE0
000FE0
01FF80
07FE00
07F000
07F000
000000
000000
07F000
1FFC00
1FFC00
07F000
ENDCHAR

STARTCHAR at
ENCODING 64
SWIDTH 1000 0
DWIDTH 25 0
BBX 23 20 1 -3
BITMAP
07FFC0
0FFFE0
3FFFF0
7E01F8
7C00F8
FC00F8
F87FF8
F8FFF8
F9FFF8
F9F0F8
F9F0F8
F9FFF8
F8FF7E
F87F3E
FC0000
FC0000
7F0000
3FFFF0
0FFFF0
07FFF0
ENDCHAR

STARTCHAR A
ENCODING 65
SWIDTH 1000 0
DWIDTH 25 0
BBX 23 15 1 0
BITMAP
00FF00
01FF80
01FF80
03FFC0
03EFC0
07CFC0
07C7E0
0F87E0
0FFFF0
1FFFF0
1E03F8
3E01F8
FF87FE
FF87FE
FF87FE
ENDCHAR

STARTCHAR B
ENCODING 66
SWIDTH 1000 0
DWIDTH 25 0
BBX 23 15 1 0
BITMAP
FFFFE0
FFFFF8
FFFFF8
3F83F8
3F83F8
3F83E0
3FFFE0
3FFFF8
3F80FE
3F80FE
3F80FE
3F80FE
FFFFFC
FFFFFC
FFFFF0
ENDCHAR

STARTCHAR C
ENCODING 67
SWIDTH 1000 0
DWIDTH 25 0
BBX 23 15 1 0
BITMAP
03FF1E
1FFFFE
3FFFFE
7F00FE
FE003E
FE003E
FE0000
FE0000
FE0000
FE0000
FF0000
7F803E
3FFFFE
1FFFFE
03FFE0
ENDCHAR

STARTCHAR D
ENCODING 68
SWIDTH 1000 0
DWIDTH 25 0
BBX 23 15 1 0
BITMAP
FFFFE0
FFFFF8
FFFFF8
3F81FC
3F80FE
3F80FE
3F80FE
3F80FE
3F80FE
3F80FE
3F80FE
3F81FC
FFFFF8
FFFFF8
FFFFE0
ENDCHAR

STARTCHAR E
ENCODING 69
SWIDTH 1000 0
DWIDTH 25 0
BBX 21 15 2 0
BITMAP
FFFFF8
FFFFF8
FFFFF8
3F8078
3F8078
3F9E00
3FFE00
3FFE00
3F9E00
3F8078
3F8078
3F8078
FFFFF8
FFFFF8
FFFFF8
ENDCHAR

STARTCHAR F
ENCODING 70
SWIDTH 1000 0
DWIDTH 25 0
BBX 21 15 2 0
BITMAP
FFFFF8
FFFFF8
FFFFF8
3F8078
3F8078
3F8000
3F8F00
3FFF00
3FFF00
3F8F00
3F8000
3F8000
FFF000
FFF000
FFF000
ENDCHAR

STARTCHAR G
ENCODING 71
SWIDTH 1000 0
DWIDTH 25 0
BBX 23 15 1 0
BITMAP
03FF1E
1FFFFE
3FFFFE
7F00FE
FE003E
FE0000
FE0000
FE0FFE
FE0FFE
FE00FE
FE00FE
7F00FE
3FFFFE
1FFFFE
03FFF0
ENDCHAR

STARTCHAR H
ENCODING 72
SWIDTH 1000 0
DWIDTH 25 0
BBX 23 15 1 0
BITMAP
FF83FE
FF83FE
FF83FE
3F83F8
3F83F8
3F83F8
3FFFF8
3FFFF8
3F83F8
3F83F8
3F83F8
3F83F8
FF83FE
FF83FE
FF83FE
ENDCHAR

STARTCHAR I
ENCODING 73
SWIDTH 1000 0
DWIDTH 25 0
BBX 17 15 4 0
BITMAP
FFFF80
FFFF80
FFFF80
07F000
07F000
07F000
07F000
07F000
07F000
07F000
07F000
07F000
FFFF80
FFFF80
FFFF80
ENDCHAR

STARTCHAR J
ENCODING 74
SWIDTH 1000 0
DWIDTH 25 0
BBX 23 15 1 0
BITMAP
01FFFE
01FFFE
01FFFE
000FE0
000FE0
000FE0
000FE0
000FE0
F80FE0
F80FE0
F80FE0
FC0FE0
FFFFC0
FFFFC0
3FFF00
ENDCHAR

STARTCHAR K
ENCODING 75
SWIDTH 1000 0
DWIDTH 25 0
BBX 23 15 1 0
BITMAP
FF83FC
FF83FC
FF83FC
3F87C0
3F8F00
3F9E00
3FBC00
3FFE00
3FFF00
3F9F80
3F8FC0
3F87E0
FF83FE
FF83FE
FF83FE
ENDCHAR

STARTCHAR L
ENCODING 76
SWIDTH 1000 0
DWIDTH 25 0
BBX 21 15 2 0
BITMAP
FFF800
FFF800
FFF800
1FC000
1FC000
1FC000
1FC000
1FC000
1FC0F8
1FC0F8
1FC0F8
1FC0F8
FFFFF8
FFFFF8
FFFFF8
ENDCHAR

STARTCHAR M
ENCODING 77
SWIDTH 1000 0
DWIDTH 25 0
BBX 23 15 1 0
BITMAP
FE007E
FF00FE
FF00FE
3F81F8
3FC3F8
3FE7F8
3FFFF8
3EFEF8
3E7CF8
3F19F8
3F19F8
3F01F8
FF01FE
FF01FE
FF01FE
ENDCHAR

STARTCHAR N
ENCODING 78
SWIDTH 1000 0
DWIDTH 25 0
BBX 23 15 1 0
BITMAP
FF83FE
FF83FE
FFC3FE
3FE3F8
3FF3F8
3FFBF8
3FBBF8
3F9FF8
3F8FF8
3F87F8
3F87F8
3F83F8
FF83F8
FF83F8
FF83F8
ENDCHAR

STARTCHAR O
ENCODING 79
SWIDTH 1000 0
DWIDTH 25 0
BBX 23 15 1 0
BITMAP
07FFC0
1FFFF0
3FC7F8
7F01FC
7E00FC
FE00FE
FC007E
FC007E
FC007E
FE00FE
7E00FC
7F01FC
3FC7F8
1FFFF0
07FFC0
ENDCHAR

STARTCHAR P
ENCODING 80
SWIDTH 1000 0
DWIDTH 25 0
BBX 21 15 2 0
BITMAP
FFFFE0
FFFFF0
FFFFF8
1FC3F8
1FC3F8
1FC3F8
1FC3F8
1FFFF0
1FFFE0
1FC000
1FC000
1FC000
FFF800
FFF800
FFF800
ENDCHAR

STARTCHAR Q
ENCODING 81
SWIDTH 1000 0
DWIDTH 25 0
BBX 23 20 1 -5
BITMAP
07FFC0
1FFFF0
3FFFF8
7F01FC
7E00FC
FE00FE
FE00FE
FE00FE
FE00FE
FE00FE
7E00FC
7F01FC
3FFFF8
1FFFF0
07FFC0
00E000
00E01E
01FFFE
07FFFE
078FF0
ENDCHAR

STARTCHAR R
ENCODING 82
SWIDTH 1000 0
DWIDTH 25 0
BBX 23 15 1 0
BITMAP
FFFFE0
FFFFF8
FFFFF8
3F83F8
3F83F8
3F83F8
3FFFF0
3FFF80
3F9FC0
3F8FE0
3F87E0
3F87F0
FF83FE
FF83FE
FF81FE
ENDCHAR

STARTCHAR S
ENCODING 83
SWIDTH 1000 0
DWIDTH 25 0
BBX 19 15 3 0
BITMAP
1FF3E0
7FFFE0
7FFFE0
FE07E0
FE03E0
7FC000
3FFC00
0FFF80
007FE0
F80FE0
F80FE0
FC0FE0
FFFFC0
FFFFC0
F9FF00
ENDCHAR

STARTCHAR T
ENCODING 84
SWIDTH 1000 0
DWIDTH 25 0
BBX 23 15 1 0
BITMAP
FFFFFE
FFFFFE
FFFFFE
F8FE3E
F8FE3E
F8FE3E
F8FE3E
00FE00
00FE00
00FE00
00FE00
00FE00
07FFC0
07FFC0
07FFC0
ENDCHAR

STARTCHAR U
ENCODING 85
SWIDTH 1000 0
DWIDTH 25 0
BBX 23 15 1 0
BITMAP
FF83FE
FF83FE
FF83FE
3F83F8
3F83F8
3F83F8
3F83F8
3F83F8
3F83F8
3F83F8
3F83F8
3F83F8
1FFFF0
1FFFF0
07FFC0
ENDCHAR

STARTCHAR V
ENCODING 86
SWIDTH 1000 0
DWIDTH 25 0
BBX 23 15 1 0
BITMAP
FF00FE
FF00FE
FF00FE
3F81F8
3F81F8
1F83F0
1FC3E0
0FC7E0
0FE7C0
07EFC0
07FF80
03FF00
03FF00
01FE00
01FE00
ENDCHAR

STARTCHAR W
ENCODING 87
SWIDTH 1000 0
DWIDTH 25 0
BBX 23 15 1 0
BITMAP
FF83FE
FF83FE
FF83FE
3E0078
3E3878
3E3878
3E7CF0
1E7CF0
1EFEF0
1FCFE0
1FCFE0
1FCFE0
0F87C0
0F87C0
0F87C0
ENDCHAR

STARTCHAR X
ENCODING 88
SWIDTH 1000 0
DWIDTH 25 0
BBX 23 15 1 0
BITMAP
FF00FC
FF81FC
FFC3FC
1FE7E0
0FFFC0
03FF80
01FF00
00FF00
01FF80
03FFC0
07EFE0
0FC7F0
FF83FE
FF03FE
FF01FE
ENDCHAR

STARTCHAR Y
ENCODING 89
SWIDTH 1000 0
DWIDTH 25 0
BBX 23 15 1 0
BITMAP
FF81FE
FF81FE
FFC3FE
1FC3F0
0FE7E0
07FFC0
03FF80
01FF00
00FE00
00FE00
00FE00
00FE00
0FFFE0
0FFFE0
0FFFE0
ENDCHAR

STARTCHAR Z
ENCODING 90
SWIDTH 1000 0
DWIDTH 25 0
BBX 19 15 3 0
BITMAP
FFFFC0
FFFFC0
FFFF80
F87F00
F8FE00
01FC00
03F800
07F000
0FE000
1FC3E0
3F83E0
7F03E0
FFFFE0
FFFFE0
FFFFE0
ENDCHAR

STARTCHAR bracketleft
ENCODING 91
SWIDTH 1000 0
DWIDTH 25 0
BBX 12 21 7 -3
BITMAP
FFF0
FFF0
FFF0
FE00
FE00
FE00
FE00
FE00
FE00
FE00
FE00
FE00
FE00
FE00
FE00
FE00
FE00
FE00
FFF0
FFF0
FFF0
ENDCHAR

STARTCHAR backslash
ENCODING 92
SWIDTH 1000 0
DWIDTH 25 0
BBX 24 20 1 -3
BITMAP
F80000
7C0000
3E0000
1F0000
0F8000
07C000
03E000
01F000
00F800
007C00
003E00
001F00
000F80
0007C0
0003E0
0001F0
0000F8
00007C
00003E
00001F
ENDCHAR

STARTCHAR bracketright
ENCODING 93
SWIDTH 1000 0
DWIDTH 25 0
BBX 12 21 7 -3
BITMAP
FFF0
FFF0
FFF0
07F0
07F0
07F0
07F0
07F0
07F0
07F0
07F0
07F0
07F0
07F0
07F0
07F0
07F0
07F0
FFF0
FFF0
FFF0
ENDCHAR

STARTCHAR asciicircum
ENCODING 94
SWIDTH 1000 0
DWIDTH 25 0
BBX 21 7 2 5
BITMAP
007000
00F800
03FE00
07DF00
1F8FC0
7E03F0
FC01F8
ENDCHAR

STARTCHAR underscore
ENCODING 95
SWIDTH 1000 0
DWIDTH 25 0
BBX 25 3 0 0
BITMAP
FFFFFF80
FFFFFF80
FFFFFF80
ENDCHAR

STARTCHAR quoteleft
ENCODING 96
SWIDTH 1000 0
DWIDTH 25 0
BBX 10 7 8 11
BITMAP
F000
F800
FC00
7E00
1F00
0F80
03C0
ENDCHAR

STARTCHAR a
ENCODING 97
SWIDTH 1000 0
DWIDTH 25 0
BBX 23 12 1 0
BITMAP
0FFFE0
3FFFF0
0003F8
0003F8
1FFFF8
7FFFF8
FE03F8
FE03F8
FE07F8
FFFFF8
7FFFFE
3FF3FE
ENDCHAR

STARTCHAR b
ENCODING 98
SWIDTH 1000 0
DWIDTH 25 0
BBX 23 17 1 0
BITMAP
FF8000
FF8000
3F8000
3F8000
3F8000
3F9FF0
3FFFFC
3FE3FC
3FC1FE
3F80FE
3F80FE
3F80FE
3F80FE
3FC3FC
3FFFFC
FFFFF8
FF9FE0
ENDCHAR

STARTCHAR c
ENCODING 99
SWIDTH 1000 0
DWIDTH 25 0
BBX 22 12 2 0
BITMAP
0FFE3C
3FFFFC
7F83FC
7F01FC
FE007C
FE0000
FE0000
FF0000
FF007C
7FC0FC
3FFFFC
0FFFC0
ENDCHAR

STARTCHAR d
ENCODING 100
SWIDTH 1000 0
DWIDTH 25 0
BBX 23 17 1 0
BITMAP
007FF8
007FF8
0003F8
0003F8
0003F8
0FF3F8
3FFFF8
7F87F8
7F07F8
FE03F8
FE03F8
FE03F8
FE03F8
7F07F8
7FCFF8
3FFFFE
0FF3FE
ENDCHAR

STARTCHAR e
ENCODING 101
SWIDTH 1000 0
DWIDTH 25 0
BBX 22 14 1 0
BITMAP
3FFFE0
3FFFE0
3FFFE0
01FC00
01FC00
01FC00
00FE00
00FE00
00FE00
00FE00
01FC00
01FC00
01FC00
01FC00
ENDCHAR

STARTCHAR f
ENCODING 102
SWIDTH 1000 0
DWIDTH 25 0
BBX 21 16 2 0
BITMAP
03FFF8
03FFF8
07F000
07F000
7FFFE0
7FFFE0
07F000
07F000
07F000
07F000
07F000
07F000
07F000
07F000
FFFFE0
FFFFE0
ENDCHAR

STARTCHAR g
ENCODING 103
SWIDTH 1000 0
DWIDTH 25 0
BBX 23 17 1 -5
BITMAP
07F3FE
3FFFFE
7F07F8
FF07F8
FE03F8
FE03F8
FE03F8
FE03F8
FF07F8
7FFFF8
3FFFF8
0FF3F8
0003F8
0003F8
0007F0
3FFFE0
3FFF80
ENDCHAR

STARTCHAR h
ENCODING 104
SWIDTH 1000 0
DWIDTH 25 0
BBX 23 17 1 0
BITMAP
FF8000
FF8000
3F8000
3F8000
3F8000
3F9FE0
3FFFF0
3FE3F8
3F83F8
3F83F8
3F83F8
3F83F8
3F83F8
3F83F8
3F83F8
FF83FE
FF83FE
ENDCHAR

STARTCHAR i
ENCODING 105
SWIDTH 1000 0
DWIDTH 25 0
BBX 17 18 4 0
BITMAP
07F000
07F000
07F000
07F000
000000
000000
7FF000
7FF000
07F000
07F000
07F000
07F000
07F000
07F000
07F000
07F000
FFFF80
FFFF80
ENDCHAR

STARTCHAR j
ENCODING 106
SWIDTH 1000 0
DWIDTH 25 0
BBX 16 23 2 -5
BITMAP
007F
007F
007F
007F
0000
0000
0FFF
0FFF
007F
007F
007F
007F
007F
007F
007F
007F
007F
007F
007F
007F
00FE
FFFC
FFF0
ENDCHAR

STARTCHAR k
ENCODING 107
SWIDTH 1000 0
DWIDTH 25 0
BBX 23 17 1 0
BITMAP
FF8000
FF8000
3F8000
3F8000
3F8000
3F83FC
3F87FC
3F8F80
3F9F00
3FBE00
3FFE00
3FFF00
3F9F80
3F8FE0
3F87F0
FF83FE
FF81FE
ENDCHAR

STARTCHAR l
ENCODING 108
SWIDTH 1000 0
DWIDTH 25 0
BBX 17 17 4 0
BITMAP
7FF000
7FF000
07F000
07F000
07F000
07F000
07F000
07F000
07F000
07F000
07F000
07F000
07F000
07F000
07F000
FFFF80
FFFF80
ENDCHAR

STARTCHAR m
ENCODING 109
SWIDTH 1000 0
DWIDTH 25 0
BBX 23 12 1 0
BITMAP
F9F9FC
FFFFFE
FE7E7E
FE7E7E
FE7E7E
FE7E7E
FE7E7E
FE7E7E
FE7E7E
FE7E7E
FE7E7E
FE007E
ENDCHAR

STARTCHAR n
ENCODING 110
SWIDTH 1000 0
DWIDTH 25 0
BBX 23 12 1 0
BITMAP
FF9FE0
FFFFF0
3FE3F8
3F83F8
3F83F8
3F83F8
3F83F8
3F83F8
3F83F8
3F83F8
FF83FE
FF83FE
ENDCHAR

STARTCHAR o
ENCODING 111
SWIDTH 1000 0
DWIDTH 25 0
BBX 23 12 1 0
BITMAP
07FFE0
3FFFF8
7F01FC
FE00FE
FE00FE
FE00FE
FE00FE
FE00FE
FE00FE
7F01FC
3FFFF8
07FFC0
ENDCHAR

STARTCHAR p
ENCODING 112
SWIDTH 1000 0
DWIDTH 25 0
BBX 23 17 1 -5
BITMAP
FF9FE0
FFFFF8
3FE1FC
3F81FC
3F80FE
3F80FE
3F80FE
3F80FE
3F81FC
3FE3FC
3FFFF8
3F9FE0
3F8000
3F8000
3F8000
FFF800
FFF800
ENDCHAR

STARTCHAR q
ENCODING 113
SWIDTH 1000 0
DWIDTH 25 0
BBX 23 17 1 -5
BITMAP
0FF3FE
3FFFFE
7F07F8
FE03F8
FE03F8
FE03F8
FE03F8
FE03F8
FF07F8
7FFFF8
3FFFF8
0FF3F8
0003F8
0003F8
0003F8
007FFE
007FFE
ENDCHAR

STARTCHAR r
ENCODING 114
SWIDTH 1000 0
DWIDTH 25 0
BBX 23 12 1 0
BITMAP
FFC7F8
FFFFFE
07F07E
07F07E
07F000
07F000
07F000
07F000
07F000
07F000
FFFFC0
FFFFC0
ENDCHAR

STARTCHAR s
ENCODING 115
SWIDTH 1000 0
DWIDTH 25 0
BBX 19 12 3 0
BITMAP
1FF9E0
7FFFE0
FF03E0
FF03E0
7FF800
3FFF80
07FFC0
000FE0
FC0FE0
FFFFE0
FFFFC0
E7FF00
ENDCHAR

STARTCHAR t
ENCODING 116
SWIDTH 1000 0
DWIDTH 25 0
BBX 22 17 2 0
BITMAP
07F000
07F000
07F000
07F000
07F000
FFFFF8
FFFFF8
07F000
07F000
07F000
07F000
07F000
07F000
07F000
07F83C
07FFFC
01FFE0
ENDCHAR

STARTCHAR u
ENCODING 117
SWIDTH 1000 0
DWIDTH 25 0
BBX 23 12 1 0
BITMAP
FF8FF8
FF8FF8
3F83F8
3F83F8
3F83F8
3F83F8
3F83F8
3F83F8
3F87F8
3FCFF8
1FFFFE
07FBFE
ENDCHAR

STARTCHAR v
ENCODING 118
SWIDTH 1000 0
DWIDTH 25 0
BBX 23 12 1 0
BITMAP
FF00FE
FF00FE
3F81F8
1F83F0
1FC3E0
0FC7E0
07EFC0
07EF80
03FF00
03FF00
01FE00
01FC00
ENDCHAR

STARTCHAR w
ENCODING 119
SWIDTH 1000 0
DWIDTH 25 0
BBX 23 12 1 0
BITMAP
FE00FE
FE10FE
3E38F8
3E38F8
3E7CF8
3EFEF8
1FFFF0
1FEFF0
1FC7F0
0FC7E0
0F83E0
0F83E0
ENDCHAR

STARTCHAR x
ENCODING 120
SWIDTH 1000 0
DWIDTH 25 0
BBX 23 12 1 0
BITMAP
7F01FC
7F83FC
1FC7E0
07EFC0
03FF80
01FF00
01FF80
03FFC0
07EFE0
0FC7F0
FF83FE
FF01FE
ENDCHAR

STARTCHAR y
ENCODING 121
SWIDTH 1000 0
DWIDTH 25 0
BBX 24 17 0 -5
BITMAP
FFC1FF
FFC1FF
1FC0F8
0FE1F0
07F1E0
03FBE0
01FFC0
00FF80
007F80
003F00
003E00
003E00
007E00
007C00
00FC00
07FF80
07FF80
ENDCHAR

STARTCHAR z
ENCODING 122
SWIDTH 1000 0
DWIDTH 25 0
BBX 21 12 2 0
BITMAP
FFFFF0
FFFFF0
F80FE0
F81FC0
007F00
00FC00
03F800
07E0F8
1FC0F8
7FFFF8
FFFFF8
FFFFF8
ENDCHAR

STARTCHAR braceleft
ENCODING 123
SWIDTH 1000 0
DWIDTH 25 0
BBX 15 22 5 -4
BITMAP
03FE
07FE
0FFE
0FE0
0FE0
0FE0
0FE0
0FE0
0FE0
1FE0
3F00
F800
3F00
1FE0
0FE0
0FE0
0FE0
0FE0
0FE0
0FFE
07FE
03FE
ENDCHAR

STARTCHAR bar
ENCODING 124
SWIDTH 1000 0
DWIDTH 25 0
BBX 7 22 9 -4
BITMAP
FE
FE
FE
FE
FE
FE
FE
FE
FE
FE
FE
FE
FE
FE
FE
FE
FE
FE
FE
FE
FE
FE
ENDCHAR

STARTCHAR braceright
ENCODING 125
SWIDTH 1000 0
DWIDTH 25 0
BBX 15 22 5 -4
BITMAP
FF80
FFC0
FFE0
0FE0
0FE0
0FE0
0FE0
0FE0
0FF0
01F8
003E
01F8
0FF0
0FE0
0FE0
0FE0
0FE0
0FE0
0FE0
FFE0
FFC0
FF80
ENDCHAR

STARTCHAR asciitilde
ENCODING 126
SWIDTH 1000 0
DWIDTH 25 0
BBX 23 5 1 6
BITMAP
1FE01E
7FFC3E
FFFFFE
F87FFC
F00FF0
ENDCHAR

STARTCHAR unknown_0x80
ENCODING 128
SWIDTH 1000 0
DWIDTH 25 0
BBX 23 15 1 0
BITMAP
07FFFE
3FFFFE
3FFFFE
7E3F0E
FE3F00
FE3F38
FE3FF8
FE3FF8
FE3F38
FE3F00
FE3F00
7E3F0E
3FFFFE
3FFFFE
07FFFE
ENDCHAR

STARTCHAR unknown_0x81
ENCODING 129
SWIDTH 1000 0
DWIDTH 25 0
BBX 24 12 1 0
BITMAP
07F3F8
3FFFFE
7E3F1F
7E3F1F
FE3FFF
FE3FFE
FE3F00
FE3F00
7E3F8E
3FFFFE
3FFFFE
07F3F8
ENDCHAR

STARTCHAR unknown_0x82
ENCODING 130
SWIDTH 1000 0
DWIDTH 25 0
BBX 23 21 1 0
BITMAP
7E00FC
7E00FC
FF01FE
7E00FC
000000
000000
7F83FC
7F83FC
7F83FC
0FE7F0
07E7E0
03FFC0
03FFC0
01FF00
00FE00
00FE00
00FE00
00FE00
0FFFF0
0FFFF0
0FFFF0
ENDCHAR

STARTCHAR unknown_0x9f
ENCODING 159
SWIDTH 1000 0
DWIDTH 25 0
BBX 19 24 3 -3
BITMAP
0FFF80
0FFF80
3FFFE0
FFFFE0
FE0FE0
FE0FE0
FE0FE0
FF8000
FF8000
FFE000
3FF800
0FFC00
0FFC00
03FC00
01FC00
01FC00
01FC00
000000
01FC00
01FC00
01FC00
01FC00
01FC00
01FC00
ENDCHAR

STARTCHAR unknown_0xa1
ENCODING 161
SWIDTH 1000 0
DWIDTH 25 0
BBX 11 15 7 -3
BITMAP
3F80
FFE0
FFE0
3F80
0000
3F80
3F80
3F80
3F80
3F80
3F80
3F80
3F80
3F80
3F80
ENDCHAR

STARTCHAR cent
ENCODING 162
SWIDTH 1000 0
DWIDTH 25 0
BBX 21 17 2 -2
BITMAP
007C00
007C00
007C00
0FFFF8
3FFFF8
7F80F8
FF00F8
FE0000
FE0000
FE0000
FF0078
7F80F8
3FFFF8
0FFFC0
007C00
007C00
007C00
ENDCHAR

STARTCHAR sterling
ENCODING 163
SWIDTH 1000 0
DWIDTH 25 0
BBX 23 15 1 0
BITMAP
01FFE0
07FFF8
07FFF8
0FF0F8
0FF000
07F000
FFFFE0
FFFFE0
03F800
01F800
01F800
03F01E
3FFFFE
3FFFFE
3F1FF8
ENDCHAR

STARTCHAR currency
ENCODING 164
SWIDTH 1000 0
DWIDTH 25 0
BBX 21 13 2 1
BITMAP
F00038
F00038
FDFEF8
3FFFE0
7F07F0
7E03F0
7E03F0
7E03F0
3F07E0
3FFFE0
FDFEF8
F00038
F00038
ENDCHAR

STARTCHAR yen
ENCODING 165
SWIDTH 1000 0
DWIDTH 25 0
BBX 25 15 0 0
BITMAP
FFF3FF80
FFF3FF80
FFF3FF80
1F80FC00
0FC1F800
FFF3FF80
FFF3FF80
01F3E000
FFFFFF80
FFFFFF80
007F0000
007F0000
07FFF800
07FFF800
07FFF800
ENDCHAR

STARTCHAR brokenbar
ENCODING 166
SWIDTH 1000 0
DWIDTH 25 0
BBX 7 23 9 -5
BITMAP
FE
FE
FE
FE
FE
FE
FE
FE
FE
FE
00
00
00
00
FE
FE
FE
FE
FE
FE
FE
FE
FE
ENDCHAR

STARTCHAR section
ENCODING 167
SWIDTH 1000 0
DWIDTH 25 0
BBX 23 18 1 -3
BITMAP
07FFF8
1FFFF8
3FFFF8
7F80F8
FFF0F8
F9FC00
F87C00
FE1FC0
7F87F8
0FE1FC
0FF87E
00FE1E
000F3E
7E0FFE
7E03F8
7FFFF8
7FFFE0
7FFFC0
ENDCHAR

STARTCHAR dieresis
ENCODING 168
SWIDTH 1000 0
DWIDTH 25 0
BBX 21 4 3 15
BITMAP
7E03F0
FF07F8
FF07F8
7E03F0
ENDCHAR

STARTCHAR copyright
ENCODING 169
SWIDTH 1000 0
DWIDTH 25 0
BBX 25 17 0 0
BITMAP
03FFF000
03FFF000
3FFFFE00
3E001E00
3E001E00
F87F8780
F9FF8780
F9F00780
F9F00780
F9F00780
F9FF8780
F87F8780
F8000780
3E001E00
3FFFFE00
3FFFFE00
03FFF000
ENDCHAR

STARTCHAR multiply
ENCODING 170
SWIDTH 1000 0
DWIDTH 25 0
BBX 17 15 4 0
BITMAP
1FFE00
7FFF00
003F00
003F00
3FFF00
7FFF00
7C3F00
783F00
7FFF00
7FBF80
3F9F80
000000
FFFF80
FFFF80
FFFF80
ENDCHAR

STARTCHAR guillemotleft
ENCODING 171
SWIDTH 1000 0
DWIDTH 25 0
BBX 16 10 5 0
BITMAP
0E07
1E0F
3E1F
FE7F
F078
F078
FE7F
3E1F
1E0F
0E07
ENDCHAR

STARTCHAR logicalnot
ENCODING 172
SWIDTH 1000 0
DWIDTH 25 0
BBX 21 8 2 3
BITMAP
FFFFF8
FFFFF8
FFFFF8
0003F8
0003F8
0003F8
0003F8
0003F8
ENDCHAR

STARTCHAR hyphen
ENCODING 173
SWIDTH 1000 0
DWIDTH 25 0
BBX 21 3 2 4
BITMAP
FFFFF8
FFFFF8
FFFFF8
ENDCHAR

STARTCHAR registered
ENCODING 174
SWIDTH 1000 0
DWIDTH 25 0
BBX 25 17 0 0
BITMAP
03FFF000
03FFF000
3FFFFE00
3E001E00
3E001E00
F9FF8780
F9FFC780
F9E3E780
F9FFC780
F9FF8780
F9FFE780
F9E3E780
F8000780
3E001E00
3FFFFE00
3FFFFE00
03FFF000
ENDCHAR

STARTCHAR macron
ENCODING 175
SWIDTH 1000 0
DWIDTH 25 0
BBX 16 3 5 15
BITMAP
FFFF
FFFF
FFFF
ENDCHAR

STARTCHAR degree
ENCODING 176
SWIDTH 1000 0
DWIDTH 25 0
BBX 15 10 3 5
BITMAP
1FF0
7FFC
FFFE
F83E
F83E
F83E
F83E
FFFE
7FFC
1FF0
ENDCHAR

STARTCHAR plusminus
ENCODING 177
SWIDTH 1000 0
DWIDTH 25 0
BBX 21 15 2 0
BITMAP
01FC00
01FC00
01FC00
01FC00
FFFFF8
FFFFF8
FFFFF8
01FC00
01FC00
01FC00
01FC00
000000
FFFFF8
FFFFF8
FFFFF8
ENDCHAR

STARTCHAR twosuperior
ENCODING 178
SWIDTH 1000 0
DWIDTH 25 0
BBX 14 10 6 5
BITMAP
3FF0
FFFC
FFFC
01FC
07F0
1F80
7C00
FFFC
FFFC
FFFC
ENDCHAR

STARTCHAR threesuperior
ENCODING 179
SWIDTH 1000 0
DWIDTH 25 0
BBX 14 10 6 5
BITMAP
3FF0
FFFC
FFFC
01F8
0FE0
01F8
01FC
FFFC
FFF8
3FF0
ENDCHAR

STARTCHAR acute
ENCODING 180
SWIDTH 1000 0
DWIDTH 25 0
BBX 13 4 6 15
BITMAP
03F8
0FF0
3F80
FE00
ENDCHAR

STARTCHAR mu
ENCODING 181
SWIDTH 1000 0
DWIDTH 25 0
BBX 23 17 1 -5
BITMAP
3F80FE
3F80FE
3F80FC
3F80FC
3F01FC
3F01FC
3F01F8
3F01F8
7F07F8
7FFFFE
7FFFFE
7FF8FE
7E0000
7E0000
7E0000
FE0000
FE0000
ENDCHAR

STARTCHAR paragraph
ENCODING 182
SWIDTH 1000 0
DWIDTH 25 0
BBX 23 18 1 -3
BITMAP
1FFFFE
7FFFFE
7FFFFE
FFFCF8
FFFCF8
FFFCF8
FFFCF8
7FFCF8
1FFCF8
007CF8
007CF8
007CF8
007CF8
007CF8
007CF8
01FCFE
01FCFE
01FCFE
ENDCHAR

STARTCHAR periodcentered
ENCODING 183
SWIDTH 1000 0
DWIDTH 25 0
BBX 9 6 8 4
BITMAP
3E00
7F00
FF80
FF80
7F00
3E00
ENDCHAR

STARTCHAR cedilla
ENCODING 184
SWIDTH 1000 0
DWIDTH 25 0
BBX 14 5 6 -5
BITMAP
0F00
0FF8
007C
007C
FFF0
ENDCHAR

STARTCHAR onesuperior
ENCODING 185
SWIDTH 1000 0
DWIDTH 25 0
BBX 14 10 5 5
BITMAP
07C0
3FC0
FFC0
E7C0
07C0
07C0
07C0
7FFC
7FFC
7FFC
ENDCHAR

STARTCHAR divide
ENCODING 186
SWIDTH 1000 0
DWIDTH 25 0
BBX 17 15 4 0
BITMAP
1FFC00
3FFE00
7FFF00
FC1F80
FC1F80
FC1F80
FC1F80
FC1F80
7FFF00
3FFE00
1FFC00
000000
FFFF80
FFFF80
FFFF80
ENDCHAR

STARTCHAR guillemotright
ENCODING 187
SWIDTH 1000 0
DWIDTH 25 0
BBX 15 10 5 1
BITMAP
E0E0
F0F0
F8F8
FEFE
1E1E
1E1E
FEFE
F8F8
F0F0
E0E0
ENDCHAR

STARTCHAR onequarter
ENCODING 188
SWIDTH 1000 0
DWIDTH 25 0
BBX 24 23 0 -5
BITMAP
1F0000
7F0000
FF0000
DF0000
1F0000
1F0000
1F0000
FFE000
FFE000
FFE0FC
0000FC
001FFC
03FF00
03FF00
7FE07C
7C01FC
7C01FC
00077C
003E7C
003FFF
003FFF
00007C
00007C
ENDCHAR

STARTCHAR onehalf
ENCODING 189
SWIDTH 1000 0
DWIDTH 25 0
BBX 25 23 0 -5
BITMAP
0F800000
7F800000
FF800000
CF800000
0F800000
0F800000
0F800000
7FF00000
7FF00000
7FF07C00
00007C00
000FFC00
01FF8000
01FF8000
3FF0FE00
3E07FF80
3E07FF80
00001F80
00003F00
0000F800
0007E000
0007FF80
0007FF80
ENDCHAR

STARTCHAR threequarters
ENCODING 190
SWIDTH 1000 0
DWIDTH 25 0
BBX 24 23 0 -5
BITMAP
3F8000
3FC000
FFF000
01F000
0FF000
01C000
01F000
FFF000
FFF000
3F80F8
0000F8
001FF8
03FF00
03FF00
7FE07C
7C01FC
7C01FC
00077C
003E7C
003FFF
003FFF
00007C
00007C
ENDCHAR

STARTCHAR unknown_0xbf
ENCODING 191
SWIDTH 1000 0
DWIDTH 25 0
BBX 19 15 3 -3
BITMAP
01FC00
07FF00
07FF00
01FC00
000000
000000
01FC00
01FC00
0FFC00
3FF000
FE0000
FE0FE0
FF1FE0
7FFFC0
1FFF00
ENDCHAR

STARTCHAR unknown_0xc0
ENCODING 192
SWIDTH 1000 0
DWIDTH 25 0
BBX 23 21 1 0
BITMAP
0FE000
07F000
01F800
007C00
000000
000000
00FF00
01FF80
01FF80
03FFC0
03EFC0
07CFC0
07C7E0
0F87E0
0FFFF0
1FFFF0
1E03F8
3E01F8
FF87FE
FF87FE
FF87FE
ENDCHAR

STARTCHAR unknown_0xc1
ENCODING 193
SWIDTH 1000 0
DWIDTH 25 0
BBX 23 21 1 0
BITMAP
000FC0
001F80
007E00
00F800
000000
000000
00FF00
01FF80
01FF80
03FFC0
03EFC0
07CFC0
07C7E0
0F87E0
0FFFF0
1FFFF0
1E03F8
3E01F8
FF87FE
FF87FE
FF87FE
ENDCHAR

STARTCHAR unknown_0xc2
ENCODING 194
SWIDTH 1000 0
DWIDTH 25 0
BBX 23 21 1 0
BITMAP
007C00
01FF00
07EFC0
1F83F0
000000
000000
00FF00
01FF80
01FF80
03FFC0
03EFC0
07CFC0
07C7E0
0F87E0
0FFFF0
1FFFF0
1E03F8
3E01F8
FF87FE
FF87FE
FF87FE
ENDCHAR

STARTCHAR unknown_0xc3
ENCODING 195
SWIDTH 1000 0
DWIDTH 25 0
BBX 23 21 1 0
BITMAP
03F01C
0FFE7C
3E7FF0
380FC0
000000
000000
00FF00
01FF80
01FF80
03FFC0
03EFC0
07CFC0
07C7E0
0F87E0
0FFFF0
1FFFF0
1E03F8
3E01F8
FF87FE
FF87FE
FF87FE
ENDCHAR

STARTCHAR unknown_0xc4
ENCODING 196
SWIDTH 1000 0
DWIDTH 25 0
BBX 23 21 1 0
BITMAP
1F83F0
3FC7F8
3FC7F8
1F83F0
000000
00FF00
00FF00
01FF80
01FF80
03FFC0
03EFC0
07CFC0
07C7E0
0F87E0
0FFFF0
1FFFF0
1E03F8
3E01F8
FF87FE
FF87FE
FF87FE
ENDCHAR

STARTCHAR unknown_0xc5
ENCODING 197
SWIDTH 1000 0
DWIDTH 25 0
BBX 23 22 1 0
BITMAP
01FF00
0FFFE0
0F83E0
0F83E0
0F83E0
01FF00
000000
00FF00
01FF80
01FF80
03FFC0
03EFC0
07CFC0
07C7E0
0F87E0
0FFFF0
1FFFF0
1E03F8
3E01F8
FF87FE
FF87FE
FF87FE
ENDCHAR

STARTCHAR unknown_0xc6
ENCODING 198
SWIDTH 1000 0
DWIDTH 25 0
BBX 23 15 1 0
BITMAP
07FFFE
0FFFFE
0FFFFE
1E7F1E
1E7F00
3E7F38
3C7FF8
3C7FF8
787F38
7FFF00
7FFF00
F87F1E
F87FFE
F87FFE
F87FFE
ENDCHAR

STARTCHAR unknown_0xc7
ENCODING 199
SWIDTH 1000 0
DWIDTH 25 0
BBX 23 20 1 -5
BITMAP
03FF1E
3FFFFE
3FFFFE
7F00FE
FE001E
FE0000
FE0000
FE0000
FE0000
FE0000
FE0000
7F001E
3FFFFE
3FFFFE
03FFE0
007800
007FC0
007FC0
0003E0
07FFE0
ENDCHAR

STARTCHAR unknown_0xc8
ENCODING 200
SWIDTH 1000 0
DWIDTH 25 0
BBX 23 21 1 0
BITMAP
07F000
03F800
00FC00
003E00
000000
000000
FFFFFE
FFFFFE
FFFFFE
3F801E
3F801E
3F8F00
3FFF00
3FFF00
3F8F00
3F801E
3F801E
3F801E
FFFFFE
FFFFFE
FFFFFE
ENDCHAR

STARTCHAR unknown_0xc9
ENCODING 201
SWIDTH 1000 0
DWIDTH 25 0
BBX 23 21 1 0
BITMAP
0007E0
000FC0
003F00
007C00
000000
000000
FFFFFE
FFFFFE
FFFFFE
3F801E
3F801E
3F8F00
3FFF00
3FFF00
3F8F00
3F801E
3F801E
3F801E
FFFFFE
FFFFFE
FFFFFE
ENDCHAR

STARTCHAR unknown_0xca
ENCODING 202
SWIDTH 1000 0
DWIDTH 25 0
BBX 23 21 1 0
BITMAP
003E00
00FF80
03F7E0
0FC1F8
000000
000000
FFFFFE
FFFFFE
FFFFFE
3F801E
3F801E
3F8F00
3FFF00
3FFF00
3F8F00
3F801E
3F801E
3F801E
FFFFFE
FFFFFE
FFFFFE
ENDCHAR

STARTCHAR unknown_0xcb
ENCODING 203
SWIDTH 1000 0
DWIDTH 25 0
BBX 23 21 1 0
BITMAP
1F83F0
3FC7F8
3FC7F8
1F83F0
000000
000000
FFFFFE
FFFFFE
FFFFFE
3F801E
3F801E
3F8F00
3FFF00
3FFF00
3F8F00
3F801E
3F801E
3F801E
FFFFFE
FFFFFE
FFFFFE
ENDCHAR

STARTCHAR unknown_0xcc
ENCODING 204
SWIDTH 1000 0
DWIDTH 25 0
BBX 21 21 2 0
BITMAP
1FC000
0FE000
03F000
00F800
000000
000000
FFFFF8
FFFFF8
FFFFF8
01FC00
01FC00
01FC00
01FC00
01FC00
01FC00
01FC00
01FC00
01FC00
FFFFF8
FFFFF8
FFFFF8
ENDCHAR

STARTCHAR unknown_0xcd
ENCODING 205
SWIDTH 1000 0
DWIDTH 25 0
BBX 21 21 2 0
BITMAP
000FC0
001F80
007E00
00F800
000000
000000
FFFFF8
FFFFF8
FFFFF8
01FC00
01FC00
01FC00
01FC00
01FC00
01FC00
01FC00
01FC00
01FC00
FFFFF8
FFFFF8
FFFFF8
ENDCHAR

STARTCHAR unknown_0xce
ENCODING 206
SWIDTH 1000 0
DWIDTH 25 0
BBX 21 21 2 0
BITMAP
00F800
03FE00
0FDF80
3F07F0
000000
000000
FFFFF8
FFFFF8
FFFFF8
01FC00
01FC00
01FC00
01FC00
01FC00
01FC00
01FC00
01FC00
01FC00
FFFFF8
FFFFF8
FFFFF8
ENDCHAR

STARTCHAR unknown_0xcf
ENCODING 207
SWIDTH 1000 0
DWIDTH 25 0
BBX 21 21 2 0
BITMAP
3F07E0
7F8FF0
7F8FF0
3F07E0
000000
000000
FFFFF8
FFFFF8
FFFFF8
01FC00
01FC00
01FC00
01FC00
01FC00
01FC00
01FC00
01FC00
01FC00
FFFFF8
FFFFF8
FFFFF8
ENDCHAR

STARTCHAR unknown_0xd0
ENCODING 208
SWIDTH 1000 0
DWIDTH 25 0
BBX 23 15 1 0
BITMAP
FFFFE0
FFFFF8
FFFFF8
3F81FC
3F80FE
3F80FE
FFFCFE
FFFCFE
3F80FE
3F80FE
3F80FE
3F81FC
FFFFF8
FFFFF8
FFFFE0
ENDCHAR

STARTCHAR unknown_0xd1
ENCODING 209
SWIDTH 1000 0
DWIDTH 25 0
BBX 23 21 1 0
BITMAP
03F038
0FFE78
3E7FF0
380FC0
000000
000000
FF83FE
FF83FE
FF83FE
3FE3F8
3FF3F8
3FFBF8
3FFBF8
3F9FF8
3F8FF8
3F87F8
3F87F8
3F83F8
FF83F8
FF83F8
FF83F8
ENDCHAR

STARTCHAR unknown_0xd2
ENCODING 210
SWIDTH 1000 0
DWIDTH 25 0
BBX 23 21 1 0
BITMAP
1FC000
0FE000
03F000
00F800
000000
000000
03FFC0
3FFFF8
3FFFF8
7F01FC
FE00FE
FE00FE
FE00FE
FE00FE
FE00FE
FE00FE
FE00FE
7F01FC
3FFFF8
3FFFF8
03FFC0
ENDCHAR

STARTCHAR unknown_0xd3
ENCODING 211
SWIDTH 1000 0
DWIDTH 25 0
BBX 23 21 1 0
BITMAP
0007E0
000FC0
003F00
007C00
000000
000000
03FFC0
3FFFF8
3FFFF8
7F01FC
FE00FE
FE00FE
FE00FE
FE00FE
FE00FE
FE00FE
FE00FE
7F01FC
3FFFF8
3FFFF8
03FFC0
ENDCHAR

STARTCHAR unknown_0xd4
ENCODING 212
SWIDTH 1000 0
DWIDTH 25 0
BBX 23 21 1 0
BITMAP
007C00
01FF00
07EFC0
1F83F8
000000
000000
03FFC0
3FFFF8
3FFFF8
7F01FC
FE00FE
FE00FE
FE00FE
FE00FE
FE00FE
FE00FE
FE00FE
7F01FC
3FFFF8
3FFFF8
03FFC0
ENDCHAR

STARTCHAR unknown_0xd5
ENCODING 213
SWIDTH 1000 0
DWIDTH 25 0
BBX 23 21 1 0
BITMAP
03F01C
0FFE7C
3E7FF0
380FC0
000000
000000
03FFC0
3FFFF8
3FFFF8
7F01FC
FE00FE
FE00FE
FE00FE
FE00FE
FE00FE
FE00FE
FE00FE
7F01FC
3FFFF8
3FFFF8
03FFC0
ENDCHAR

STARTCHAR unknown_0xd6
ENCODING 214
SWIDTH 1000 0
DWIDTH 25 0
BBX 23 21 1 0
BITMAP
1F83F0
3FC7F8
3FC7F8
1F83F0
000000
000000
03FFC0
3FFFF8
3FFFF8
7F01FC
FE00FE
FE00FE
FE00FE
FE00FE
FE00FE
FE00FE
FE00FE
7F01FC
3FFFF8
3FFFF8
03FFC0
ENDCHAR

STARTCHAR unknown_0xd7
ENCODING 215
SWIDTH 1000 0
DWIDTH 25 0
BBX 17 13 4 0
BITMAP
300600
780F00
FC1F80
7E3F00
3F7E00
1FFC00
07F800
0FFC00
1FFE00
3F3F00
7E1F80
3C0F00
180600
ENDCHAR

STARTCHAR unknown_0xd8
ENCODING 216
SWIDTH 1000 0
DWIDTH 25 0
BBX 23 15 1 0
BITMAP
03FFDE
3FFFFC
3FFFFC
7F03FC
FE07FE
FE0EFE
FE0EFE
FE7CFE
FEF8FE
FFE0FE
FFE0FE
7F81FC
FFFFF8
FFFFF8
F3FFC0
ENDCHAR

STARTCHAR unknown_0xd9
ENCODING 217
SWIDTH 1000 0
DWIDTH 25 0
BBX 23 21 1 0
BITMAP
0FE000
07F000
01F800
007E00
000000
000000
FF83FE
FF83FE
FF83FE
3F83F8
3F83F8
3F83F8
3F83F8
3F83F8
3F83F8
3F83F8
3F83F8
3F83F8
0FFFF0
0FFFF0
07FFE0
ENDCHAR

STARTCHAR unknown_0xda
ENCODING 218
SWIDTH 1000 0
DWIDTH 25 0
BBX 23 21 1 0
BITMAP
0007E0
000FC0
003F00
007C00
000000
000000
FF83FE
FF83FE
FF83FE
3F83F8
3F83F8
3F83F8
3F83F8
3F83F8
3F83F8
3F83F8
3F83F8
3F83F8
0FFFF0
0FFFF0
07FFE0
ENDCHAR

STARTCHAR unknown_0xdb
ENCODING 219
SWIDTH 1000 0
DWIDTH 25 0
BBX 23 21 1 0
BITMAP
007C00
01FF00
07EFC0
1F83F8
000000
000000
FF83FE
FF83FE
FF83FE
3F83F8
3F83F8
3F83F8
3F83F8
3F83F8
3F83F8
3F83F8
3F83F8
3F83F8
0FFFF0
0FFFF0
07FFE0
ENDCHAR

STARTCHAR unknown_0xdc
ENCODING 220
SWIDTH 1000 0
DWIDTH 25 0
BBX 23 21 1 0
BITMAP
1F83F0
3FC7F8
3FC7F8
1F83F0
000000
000000
FF83FE
FF83FE
FF83FE
3F83F8
3F83F8
3F83F8
3F83F8
3F83F8
3F83F8
3F83F8
3F83F8
3F83F8
0FFFF0
0FFFF0
07FFE0
ENDCHAR

STARTCHAR unknown_0xdd
ENCODING 221
SWIDTH 1000 0
DWIDTH 25 0
BBX 21 21 2 0
BITMAP
000FC0
001F80
007E00
00F800
000000
000000
FF07F8
FF07F8
FF07F8
1FCFE0
0FCFC0
07FF80
07FF80
03FE00
01FC00
01FC00
01FC00
01FC00
1FFFE0
1FFFE0
1FFFE0
ENDCHAR

STARTCHAR unknown_0xde
ENCODING 222
SWIDTH 1000 0
DWIDTH 25 0
BBX 21 15 2 0
BITMAP
FFC000
FFC000
FFFFE0
1FFFF0
1FFFF8
1FC1F8
1FC1F8
1FC1F8
1FFFF8
1FFFF0
1FFFE0
1FC000
FFF000
FFF000
FFF000
ENDCHAR

STARTCHAR dblunderscore
ENCODING 223
SWIDTH 1000 0
DWIDTH 25 0
BBX 25 22 0 -5
BITMAP
00000000
00000000
00000000
00000000
00000000
00000000
00000000
00000000
00000000
00000000
00000000
00000000
00000000
00000000
00000000
00000000
FFFFFF80
FFFFFF80
00000000
00000000
FFFFFF80
FFFFFF80
ENDCHAR

STARTCHAR aleph
ENCODING 224
SWIDTH 1000 0
DWIDTH 25 0
BBX 23 14 1 0
BITMAP
FC01FC
FE01FC
FF81FC
7FC1FC
1FF1FC
0FFFFC
03FFF8
7FFF00
FFFFC0
FE3FE0
FE0FF8
FE07FC
FE01FC
FE00FC
ENDCHAR

STARTCHAR beth
ENCODING 225
SWIDTH 1000 0
DWIDTH 25 0
BBX 23 14 1 0
BITMAP
7FFFF0
7FFFF8
7FFFF8
0003F8
0003F8
0003F8
0003F8
0003F8
0003F8
0003F8
0003F8
FFFFFE
FFFFFE
FFFFFE
ENDCHAR

STARTCHAR gimmel
ENCODING 226
SWIDTH 1000 0
DWIDTH 25 0
BBX 23 14 1 0
BITMAP
007FF0
007FF8
007FF8
0003F8
0003F8
0003F8
0003F8
0007F8
001FF8
00FFF8
0FFBF8
7FE3F8
7F83F8
7F83F8
ENDCHAR

STARTCHAR daleth
ENCODING 227
SWIDTH 1000 0
DWIDTH 25 0
BBX 23 14 1 0
BITMAP
FFFFFE
FFFFFE
FFFFFE
0007F0
0007F0
0007F0
0007F0
0007F0
0007F0
0007F0
0007F0
0007F0
0007F0
0007F0
ENDCHAR

STARTCHAR he
ENCODING 228
SWIDTH 1000 0
DWIDTH 25 0
BBX 23 14 1 0
BITMAP
FFFFC0
FFFFF8
FFFFF8
0003F8
0001FC
0001FC
0001FC
FE01FC
FE01FC
FE01FC
FE01FC
FE01FC
FE01FC
FE01FC
ENDCHAR

STARTCHAR waw
ENCODING 229
SWIDTH 1000 0
DWIDTH 25 0
BBX 23 14 1 0
BITMAP
07FF80
07FF80
07FF80
003F80
003F80
003F80
003F80
003F80
003F80
003F80
003F80
003F80
003F80
003F80
ENDCHAR

STARTCHAR zayin
ENCODING 230
SWIDTH 1000 0
DWIDTH 25 0
BBX 24 14 1 0
BITMAP
07FFF0
07FFF0
07FFF0
007F00
007F00
007F00
003F80
003F80
003F80
003F80
007F00
007F00
007F00
007F00
ENDCHAR

STARTCHAR het
ENCODING 231
SWIDTH 1000 0
DWIDTH 25 0
BBX 23 14 1 0
BITMAP
FFFFC0
FFFFF8
FFFFF8
FE03F8
FE01FC
FE01FC
FE01FC
FE01FC
FE01FC
FE01FC
FE01FC
FE01FC
FE01FC
FE01FC
ENDCHAR

STARTCHAR teth
ENCODING 232
SWIDTH 1000 0
DWIDTH 25 0
BBX 23 14 1 0
BITMAP
FE3FFC
FE7FFE
FE7FFE
FE7CFE
FE7CFE
FE7CFE
FE00FE
FE00FE
FE00FE
FE00FE
7F01FC
7FFFFC
7FFFFC
0FFFE0
ENDCHAR

STARTCHAR yod
ENCODING 233
SWIDTH 1000 0
DWIDTH 25 0
BBX 23 19 1 -5
BITMAP
07FF80
07FF80
07FF80
003F80
003F80
003F80
003F80
003F80
000000
000000
000000
000000
000000
000000
000000
000000
000000
000000
000000
ENDCHAR

STARTCHAR kaphfinal
ENCODING 234
SWIDTH 1000 0
DWIDTH 25 0
BBX 23 19 1 -5
BITMAP
FFFFFE
FFFFFE
FFFFFE
0007F0
0007F0
0007F0
0007F0
0007F0
0007F0
0007F0
0007F0
0007F0
0007F0
0007F0
0007F0
0007F0
0007F0
0007F0
0007F0
ENDCHAR

STARTCHAR kaph
ENCODING 235
SWIDTH 1000 0
DWIDTH 25 0
BBX 23 14 1 0
BITMAP
FFFFE0
FFFFFC
FFFFFC
0001FC
0000FE
0000FE
0000FE
0000FE
0000FE
0000FE
0001FC
FFFFFC
FFFFFC
FFFFE0
ENDCHAR

STARTCHAR lamed
ENCODING 236
SWIDTH 1000 0
DWIDTH 25 0
BBX 23 20 1 0
BITMAP
FE0000
FE0000
FE0000
FE0000
FE0000
FE0000
FFFFFE
FFFFFE
FFFFFE
0000FE
0001FE
0003FC
0007F8
000FF0
001FE0
003FC0
007F80
00FF00
01FE00
03FC00
ENDCHAR

STARTCHAR memfinal
ENCODING 237
SWIDTH 1000 0
DWIDTH 25 0
BBX 23 14 1 0
BITMAP
FFFFE0
FFFFFC
FFFFFC
FE01FC
FE00FE
FE00FE
FE00FE
FE00FE
FE00FE
FE00FE
FE00FE
FFFFFE
FFFFFE
FFFFFE
ENDCHAR

STARTCHAR mem
ENCODING 238
SWIDTH 1000 0
DWIDTH 25 0
BBX 23 14 1 0
BITMAP
383FC0
7CFFF0
FFFFF8
FFE1FC
FFC0FC
7FC0FE
3F80FE
3F80FE
3F00FE
7F00FE
7F00FE
FE1FFE
FE1FFE
FE1FFE
ENDCHAR

STARTCHAR nunfinal
ENCODING 239
SWIDTH 1000 0
DWIDTH 25 0
BBX 21 19 1 -5
BITMAP
007FF8
007FF8
007FF8
0003F8
0003F8
0003F8
0003F8
0003F8
0003F8
0003F8
0003F8
0003F8
0003F8
0003F8
0003F8
0003F8
0003F8
0003F8
000000
ENDCHAR

STARTCHAR nun
ENCODING 240
SWIDTH 1000 0
DWIDTH 25 0
BBX 23 14 1 0
BITMAP
07FF00
07FFC0
07FFC0
000FE0
000FE0
000FE0
000FE0
000FE0
000FE0
000FE0
000FE0
3FFFE0
3FFFE0
3FFFE0
ENDCHAR

STARTCHAR samekh
ENCODING 241
SWIDTH 1000 0
DWIDTH 25 0
BBX 23 14 1 0
BITMAP
FFFFFC
FFFFFC
FFFFFC
7F01FC
7F01FC
7F01FC
7F01FC
7F01FC
7F01FC
7F01FC
3F83F8
3FFFF8
3FFFF8
07FFE0
ENDCHAR

STARTCHAR ayin
ENCODING 242
SWIDTH 1000 0
DWIDTH 25 0
BBX 23 18 1 -4
BITMAP
1FC1FC
1FC1FC
1FC1FC
1FC1FC
1FC1FC
1FC1FC
1FC1FC
1FC1FC
1FC1FC
1FC1FC
1FC3F8
FFFFF8
FFFFF8
FFFFC0
000000
000000
000000
000000
ENDCHAR

STARTCHAR pefinal
ENCODING 243
SWIDTH 1000 0
DWIDTH 25 0
BBX 23 18 1 -4
BITMAP
7FFFE0
FFFFFC
FFFFFC
FE01FC
FE00FE
FE00FE
FE00FE
FE00FE
7FC0FE
7FC0FE
1FC0FE
0000FE
0000FE
0000FE
0000FE
0000FE
0000FE
0000FE
ENDCHAR

STARTCHAR pe
ENCODING 244
SWIDTH 1000 0
DWIDTH 25 0
BBX 23 18 1 -4
BITMAP
7FFFE0
FFFFFC
FFFFFC
FE01FC
FE00FE
FE00FE
7FE0FE
7FE0FE
1FE0FE
0000FE
0001FE
FFFFFC
FFFFFC
FFFFF0
000000
000000
000000
000000
ENDCHAR

STARTCHAR zadikfinal
ENCODING 245
SWIDTH 1000 0
DWIDTH 25 0
BBX 23 19 1 -5
BITMAP
FE00FE
FF00FE
7F80FE
3FC0FE
1FE0FE
0FF0FE
07F9FE
03FFFC
01FFFC
00FFF0
007F80
003F80
003F80
003F80
003F80
003F80
003F80
003F80
000000
ENDCHAR

STARTCHAR zadik
ENCODING 246
SWIDTH 1000 0
DWIDTH 25 0
BBX 23 18 1 -4
BITMAP
FF00FE
FF80FE
3FE0FE
1FF0FE
07FCFE
03FFFE
00FFFC
007FE0
001FF0
000FF8
0003FE
FFFFFE
FFFFFE
FFFFFE
000000
000000
000000
000000
ENDCHAR

STARTCHAR kof
ENCODING 247
SWIDTH 1000 0
DWIDTH 25 0
BBX 23 19 1 -5
BITMAP
FFFFFE
FFFFFE
FFFFFE
0000FE
0000FE
0001FC
0001FC
7F03F8
7F03F8
7F07F0
7F07F0
7F0FE0
7F0FE0
7F0FE0
7F0000
7F0000
7F0000
7F0000
000000
ENDCHAR

STARTCHAR resh
ENCODING 248
SWIDTH 1000 0
DWIDTH 25 0
BBX 23 14 1 0
BITMAP
FFFFE0
FFFFFC
FFFFFC
0001FC
0000FE
0000FE
0000FE
0000FE
0000FE
0000FE
0000FE
0000FE
0000FE
0000FE
ENDCHAR

STARTCHAR shin
ENCODING 249
SWIDTH 1000 0
DWIDTH 25 0
BBX 23 14 1 0
BITMAP
FCFCFE
FCFCFE
FCFCFE
FCFCFE
FCFCFE
FCFCFE
FCFCFE
FCFCFE
FCFCFE
FC00FE
7E01FC
7FFFFC
7FFFFC
0FFFE0
ENDCHAR

STARTCHAR taf
ENCODING 250
SWIDTH 1000 0
DWIDTH 25 0
BBX 23 14 1 0
BITMAP
FFFFE0
FFFFFC
FFFFFC
FF81FC
3F80FE
3F80FE
3F80FE
3F80FE
3F80FE
3F80FE
3F80FE
FF80FE
FF80FE
FF00FE
ENDCHAR

STARTCHAR unknown_0xfb
ENCODING 251
SWIDTH 1000 0
DWIDTH 25 0
BBX 23 19 1 0
BITMAP
003E00
00FF80
03F7E0
0FC1F8
000000
000000
000000
FF8FF8
FF8FF8
3F83F8
3F83F8
3F83F8
3F83F8
3F83F8
3F83F8
3F8FF8
3FFFFE
3FFFFE
07F3FE
ENDCHAR

STARTCHAR unknown_0xfc
ENCODING 252
SWIDTH 1000 0
DWIDTH 25 0
BBX 23 19 1 0
BITMAP
1F83F0
3FC7F8
3FC7F8
1F83F0
000000
000000
000000
FF8FF8
FF8FF8
3F83F8
3F83F8
3F83F8
3F83F8
3F83F8
3F83F8
3F8FF8
3FFFFE
3FFFFE
07F3FE
ENDCHAR

STARTCHAR unknown_0xfd
ENCODING 253
SWIDTH 1000 0
DWIDTH 25 0
BBX 24 24 0 -5
BITMAP
00007C
0000FC
0003F0
0007C0
000F80
000000
000000
FFC1FF
FFC1FF
1FC0F8
0FE1F0
07F1E0
03FBE0
01FFC0
00FF80
007F80
003F00
003E00
003E00
007E00
007C00
00FC00
07FF80
07FF80
ENDCHAR

STARTCHAR unknown_0xfe
ENCODING 254
SWIDTH 1000 0
DWIDTH 25 0
BBX 23 22 1 -5
BITMAP
FF8000
FF8000
3F8000
3F8000
3F8000
3F9FE0
3FFFF8
3FFFFC
3FC1FC
3F80FE
3F80FE
3F80FE
3F80FE
3FC1FC
3FFFFC
3FFFF8
3F9FE0
3F8000
3F8000
3F8000
FFF800
FFF800
ENDCHAR

STARTCHAR unknown_0xff
ENCODING 255
SWIDTH 1000 0
DWIDTH 25 0
BBX 24 24 0 -5
BITMAP
07E0FC
0FF1FE
0FF1FE
07E0FC
000000
000000
000000
FFC1FF
FFC1FF
1FC0F8
0FE1F0
07F1E0
03FBE0
01FFC0
00FF80
007F80
003F00
003E00
003E00
007E00
007C00
00FC00
07FF80
07FF80
ENDCHAR
ENDFONT
